<svg width="77" height="76" viewBox="0 0 77 76" fill="none" xmlns="http://www.w3.org/2000/svg">
<g clip-path="url(#clip0_1_42)">
<rect x="11.4472" y="14.8868" width="53.1057" height="49.1887" fill="white"/>
<path d="M35.4251 0.836876C32.8112 1.05556 30.0411 1.53342 27.904 2.12467C26.4408 2.53774 24.8215 3.0723 24.353 3.30718C24.1804 3.39628 23.5885 3.64735 23.0296 3.86604C19.9718 5.07285 15.7797 7.72134 13.0671 10.1511C10.1162 12.7915 7.83109 15.4481 5.99807 18.3639C5.52954 19.109 3.9842 21.8304 3.9842 21.9033C3.9842 21.9276 3.72117 22.5351 3.39237 23.2559C2.36489 25.5318 1.46071 28.3261 1.0004 30.6749C0.671604 32.311 0.622285 32.6026 0.498987 33.6717C0.0468953 37.527 0.161973 41.4228 0.827781 45.0918C1.98678 51.4741 5.04457 57.7997 9.35177 62.7484C12.8123 66.7171 16.6592 69.6814 21.3281 71.9816C25.2079 73.8931 28.167 74.865 32.0961 75.4968C33.6332 75.7478 34.4388 75.8288 36.8636 75.9584C38.4747 76.0394 38.9679 76.0394 40.6036 75.9179C41.6476 75.845 42.5517 75.764 42.6175 75.7478C42.6833 75.7316 43.1929 75.6587 43.7436 75.5859C46.5713 75.2295 49.6948 74.4114 52.1936 73.3828C53.5992 72.7997 56.6159 71.3175 57.6763 70.6776C62.0903 68.0454 65.8797 64.7003 68.732 60.9179C71.987 56.6172 74.2311 51.8952 75.4887 46.7116C75.7435 45.6587 75.9654 44.2737 76.0641 43.1236C76.1134 42.5567 76.1956 41.6333 76.2531 41.0583C76.3764 39.7219 76.3682 36.4984 76.2449 35.2106C76.0394 33.1209 75.9901 32.635 75.8586 31.8088C75.7188 30.926 75.275 28.9983 74.9955 28.0831C74.9133 27.7915 74.7489 27.2489 74.642 26.8682C74.453 26.2365 74.2722 25.7505 73.8529 24.7624C73.7707 24.5599 73.5652 24.0496 73.3926 23.6285C73.0638 22.8023 71.7651 20.2024 71.4527 19.7408C71.3459 19.5869 71.0746 19.1495 70.8527 18.7689C69.0772 15.7154 66.1427 12.3299 62.8712 9.55988C61.7944 8.64466 59.46 6.98429 58.3996 6.37684C58.0626 6.18246 57.7256 5.97997 57.6598 5.92327C57.5941 5.87468 57.1666 5.63979 56.7146 5.40491C56.2625 5.17004 55.761 4.89465 55.6049 4.80556C55.0295 4.45729 52.0046 3.19379 50.5908 2.70783C48.8235 2.10038 46.0205 1.44433 43.6039 1.07176C41.2859 0.723488 37.9569 0.626297 35.4251 0.836876ZM30.9207 16.987C30.97 17.1004 31.5618 18.8499 32.2276 20.8747C32.8852 22.8995 33.7894 25.6533 34.2333 26.9897C34.6771 28.3261 35.3018 30.2375 35.6306 31.2419C36.2718 33.2181 37.1924 36.0367 38.0884 38.7338C38.6555 40.4427 39.494 43.0183 40.1762 45.1323C41.2366 48.4206 41.8284 49.5626 43.1271 50.818C44.245 51.9033 44.7793 52.2435 46.0123 52.6323C47.6152 53.1425 48.955 53.1911 50.4428 52.7943C50.9689 52.6566 51.6758 52.4217 52.0046 52.2759C53.0156 51.8142 54.487 50.5426 55.1528 49.5464C55.7199 48.7041 56.2707 46.9627 56.394 45.6425C56.4433 45.0675 56.4104 44.8245 56.1474 43.6177C55.9665 42.7997 55.3007 41.4066 54.8651 40.9287C54.6596 40.7019 54.3637 40.3617 54.2157 40.1674C53.9527 39.8353 52.6622 38.8391 52.2347 38.6366C49.9003 37.5351 48.0015 37.4298 45.6917 38.2883C44.5327 38.7176 44.0971 39.0173 42.9299 40.1674C42.0339 41.0583 41.9517 41.1231 41.6558 41.1231C41.2119 41.1231 40.8174 40.791 40.7352 40.3455C40.7023 40.1674 40.7023 38.2721 40.7352 36.1339C40.768 34.0037 40.8009 29.7192 40.8009 26.6171L40.8091 20.98L42.8066 20.9233C44.8697 20.8666 57.3146 20.8747 58.2106 20.9395L58.7202 20.9719L58.9668 21.6036C59.1065 21.9519 59.2545 22.3974 59.2956 22.5918C59.3449 22.7861 59.5422 23.4422 59.7477 24.0415C60.1669 25.305 60.4792 26.4389 60.4299 26.5766C60.4053 26.6414 58.638 26.6657 53.6239 26.6657C49.9003 26.6657 46.785 26.6981 46.711 26.7305C46.4562 26.852 46.4562 26.8601 46.4726 31.0556L46.4808 33.7527H46.6699C46.7685 33.7527 47.2453 33.6474 47.7303 33.5178C49.9989 32.9103 53.1307 32.9913 55.0706 33.7122C57.9722 34.7894 60.0682 36.555 61.8109 39.3817C62.9781 41.2851 63.6192 44.3304 63.3315 46.7116C63.1671 48.1695 62.6493 50.1215 62.1232 51.2878C61.5149 52.6323 60.5697 54.0335 59.5915 55.0459C58.8599 55.8072 57.2982 57.095 56.5502 57.5567C56.2296 57.7511 55.8761 57.9778 55.761 58.0588C55.1117 58.4962 53.402 59.2009 52.358 59.46C50.7552 59.865 48.5358 59.946 46.4397 59.6787C44.056 59.3709 42.9381 59.0146 41.2201 58.0183C39.5844 57.0707 38.4583 56.1474 37.1513 54.6976C36.4773 53.9363 36.2225 53.6042 35.6882 52.7457C34.6525 51.0934 33.7894 49.0686 33.2469 47.0356C32.9921 46.0637 32.6879 45.0108 31.8495 42.1922C31.6358 41.4633 31.4303 40.8396 31.3892 40.7991C31.2905 40.71 22.6597 40.6533 22.4213 40.7424C22.183 40.8315 21.9692 41.3013 21.6569 42.4595C20.95 45.0513 20.4075 46.8007 20.2102 47.0923L20.0951 47.2786H16.7661C14.9413 47.2786 13.4288 47.2462 13.4042 47.2138C13.3055 47.0518 13.9631 44.7921 15.081 41.5281C15.2125 41.1474 15.5084 40.2565 15.7386 39.5437C16.7332 36.4741 17.9251 32.8779 18.3854 31.5253C18.6566 30.7235 19.1334 29.2656 19.454 28.2856C19.7663 27.3056 20.4814 25.1188 21.0404 23.426C21.5993 21.7332 22.1747 20 22.3063 19.5788C22.446 19.1576 22.7172 18.3477 22.9063 17.7726L23.2598 16.744L27.0327 16.7602L30.8138 16.7845L30.9207 16.987Z" fill="#E31834"/>
<path d="M26.7532 26.609C26.26 26.6657 26.1942 26.7062 26.0216 27.1031C25.9312 27.3218 25.849 27.5728 25.849 27.6538C25.849 27.7348 25.7668 28.0345 25.6764 28.3261C25.5777 28.6177 25.438 29.1036 25.3558 29.4195C25.2736 29.7273 25.1503 30.1646 25.0845 30.3914C25.0188 30.6101 24.8133 31.3228 24.6325 31.9708C24.4434 32.6187 24.2215 33.3801 24.131 33.6717C24.0406 33.9632 23.9338 34.3682 23.9091 34.5707L23.8598 34.9514L24.8215 35.008C25.7339 35.0647 29.8767 34.9919 29.9507 34.919C29.9671 34.9028 29.9096 34.6031 29.8192 34.2629C29.7288 33.9146 29.4822 32.9346 29.2602 32.0923C28.4054 28.7472 27.8711 26.9087 27.7396 26.8277C27.5669 26.7224 26.9422 26.5847 26.7532 26.609Z" fill="#E31837"/>
</g>
<defs>
<clipPath id="clip0_1_42">
<rect width="77" height="76" fill="white"/>
</clipPath>
</defs>
</svg>
