<svg width="417" height="439" viewBox="0 0 417 439" fill="none" xmlns="http://www.w3.org/2000/svg">
<g opacity="0.4">
<path d="M377.271 78.8079C304.575 -13.4182 120.02 -40.7324 90.9876 85.147C84.8245 111.871 97.8433 145.483 92.4007 174.824C82.3031 229.264 -25.9719 257.222 5.82502 325.352C38.8431 396.1 119.176 408.309 191.645 416.545C279.744 426.559 326.48 399.156 365.069 344.581C418.286 269.322 443.287 162.561 377.271 78.8079Z" fill="#CEE5FF"/>
</g>
<path d="M233.125 94.7261H219.649V114.939H233.125V94.7261Z" fill="white"/>
<path d="M239.862 94.7261H233.125V114.939H239.862V94.7261Z" fill="#CCE4FF"/>
<path d="M233.125 100.622H219.649V106.518H233.125V100.622Z" fill="#003BA8"/>
<path d="M233.125 106.516H239.862V100.621H233.125V106.516Z" fill="#002770"/>
<path d="M228.767 67.2853H218.808V82.2259H228.767V67.2853Z" fill="white"/>
<path d="M233.747 67.2853H228.767V82.2259H233.747V67.2853Z" fill="#CCE4FF"/>
<path d="M228.767 71.6434H218.808V76.0015H228.767V71.6434Z" fill="#003BA8"/>
<path d="M228.769 76.0013H233.748V71.6432H228.769V76.0013Z" fill="#002770"/>
<path d="M249.932 67.2853H239.973V82.2259H249.932V67.2853Z" fill="white"/>
<path d="M254.912 67.2853H249.932V82.2259H254.912V67.2853Z" fill="#CCE4FF"/>
<path d="M249.932 71.6434H239.973V76.0015H249.932V71.6434Z" fill="#003BA8"/>
<path d="M249.933 76.0013H254.913V71.6432H249.933V76.0013Z" fill="#002770"/>
<path d="M271.097 67.2853H261.138V82.2259H271.097V67.2853Z" fill="white"/>
<path d="M276.077 67.2853H271.097V82.2259H276.077V67.2853Z" fill="#CCE4FF"/>
<path d="M271.097 71.6434H261.138V76.0015H271.097V71.6434Z" fill="#003BA8"/>
<path d="M271.098 76.0013H276.078V71.6432H271.098V76.0013Z" fill="#002770"/>
<path d="M205.421 100.046H175.014V114.939H205.421V100.046Z" fill="white"/>
<path d="M210.385 100.046H205.421V114.939H210.385V100.046Z" fill="#CCE4FF"/>
<path d="M205.421 104.388H175.014V108.732H205.421V104.388Z" fill="#003BA8"/>
<path d="M205.422 108.734H210.386V104.39H205.422V108.734Z" fill="#002770"/>
<path d="M328.294 94.8587H319.03V99.9114H328.294V94.8587Z" fill="#85BFFF"/>
<path d="M329.979 97.386H317.346V113.387H329.979V97.386Z" fill="white"/>
<path d="M329.979 97.386H324.926V113.387H329.979V97.386Z" fill="#CCE4FF"/>
<path d="M329.979 94.8587H317.346V91.8762C317.346 90.7322 318.272 89.806 319.416 89.806H327.909C329.052 89.806 329.979 90.7322 329.979 91.8762V94.8587Z" fill="#003BA8"/>
<path d="M348.507 94.8587H339.243V99.9114H348.507V94.8587Z" fill="#85BFFF"/>
<path d="M350.192 97.386H337.559V113.387H350.192V97.386Z" fill="white"/>
<path d="M350.19 97.386H345.137V113.387H350.19V97.386Z" fill="#CCE4FF"/>
<path d="M350.192 94.8587H337.559V91.8762C337.559 90.7322 338.485 89.806 339.629 89.806H348.122C349.265 89.806 350.192 90.7322 350.192 91.8762V94.8587Z" fill="#003BA8"/>
<path d="M194.534 122.876H189.194V125.114H194.534V122.876Z" fill="#003BA8"/>
<path d="M199.436 132.526L194.647 129.925V127.437H195.395V125.159H188.456L188.454 127.435H189.185L189.25 129.923L184.456 132.522L184.454 146.124H185.282L187.924 146.126V146.124L195.963 146.128H196.705H199.432L199.436 137.519V132.526Z" fill="white"/>
<path d="M194.647 129.925V127.437H195.395V125.159H192.636V146.126L195.963 146.128H196.705H199.433L199.437 137.519V132.526L194.647 129.925Z" fill="#CCE4FF"/>
<path d="M196.08 137.268H187.813V141.822H196.08V137.268Z" fill="#003BA8"/>
<path d="M196.08 137.268H192.636V141.822H196.08V137.268Z" fill="#002770"/>
<path d="M216.853 122.876H211.513V125.114H216.853V122.876Z" fill="#003BA8"/>
<path d="M221.755 132.526L216.966 129.925V127.437H217.712L217.714 125.159H210.773V127.435H211.501L211.567 129.923L206.775 132.522L206.771 146.125H207.6L210.243 146.126V146.125L218.282 146.128H219.024H221.751L221.753 137.519L221.755 132.526Z" fill="white"/>
<path d="M216.966 129.925V127.437H217.712L217.714 125.159H214.955V146.126L218.282 146.128H219.024H221.751L221.753 137.519L221.755 132.526L216.966 129.925Z" fill="#CCE4FF"/>
<path d="M218.399 137.268H210.132V141.822H218.399V137.268Z" fill="#003BA8"/>
<path d="M218.399 137.268H214.955V141.822H218.399V137.268Z" fill="#002770"/>
<path d="M239.172 122.876H233.832V125.114H239.172V122.876Z" fill="#003BA8"/>
<path d="M244.074 132.526L239.282 129.925L239.284 127.437H240.031V125.159H233.092V127.435H233.82L233.885 129.923L229.094 132.522L229.09 146.125H229.919L232.559 146.126V146.125L240.601 146.128H241.343H244.07L244.072 137.519L244.074 132.526Z" fill="white"/>
<path d="M239.282 129.925L239.284 127.437H240.031V125.159H237.274V146.126L240.601 146.128H241.343H244.07L244.072 137.519L244.074 132.526L239.282 129.925Z" fill="#CCE4FF"/>
<path d="M240.715 137.268H232.448V141.822H240.715V137.268Z" fill="#003BA8"/>
<path d="M240.717 137.268H237.274V141.822H240.717V137.268Z" fill="#002770"/>
<path d="M368.72 113.387H158.169V118.44H368.72V113.387Z" fill="#69B0FF"/>
<path d="M360.299 124.203H346.823V144.416H360.299V124.203Z" fill="white"/>
<path d="M367.034 124.203H360.297V144.416H367.034V124.203Z" fill="#CCE4FF"/>
<path d="M360.299 130.099H346.823V135.995H360.299V130.099Z" fill="#003BA8"/>
<path d="M360.299 135.993H367.036V130.097H360.299V135.993Z" fill="#002770"/>
<path d="M332.593 129.523H302.186V144.417H332.593V129.523Z" fill="white"/>
<path d="M337.557 129.523H332.593V144.417H337.557V129.523Z" fill="#CCE4FF"/>
<path d="M332.593 133.866H302.186V138.21H332.593V133.866Z" fill="#003BA8"/>
<path d="M332.595 138.211H337.559V133.867H332.595V138.211Z" fill="#002770"/>
<path d="M368.72 82.2259H158.169V87.2786H368.72V82.2259Z" fill="#69B0FF"/>
<path d="M368.72 144.549H158.169V149.602H368.72V144.549Z" fill="#69B0FF"/>
<path d="M283.408 107.507C285.47 107.59 287.441 108.099 289.018 109.162C291.106 110.569 292.589 112.847 293.028 115.327C293.717 119.216 291.953 123.398 293.373 127.083C294.986 131.271 301.131 131.637 302.105 135.868C302.409 137.198 301.958 138.61 301.19 139.738C299.829 141.737 297.562 142.898 296.329 145.012C294.435 148.26 295.848 152.592 299.13 154.312C301.475 155.541 304.276 155.331 306.906 155.632C311.978 156.21 314.672 159.798 312.79 164.699C305.578 183.463 284.302 175.077 271.271 184.902C268.857 186.723 266.787 189.232 263.862 189.994C260.444 190.883 256.624 188.85 255.102 185.664C253.58 182.477 254.243 178.479 256.398 175.685C257.499 174.26 258.932 173.124 260.075 171.735C261.219 170.345 262.088 168.548 261.736 166.783C260.826 162.219 253.285 161.924 251.935 157.469C251.258 155.232 252.521 152.84 254.166 151.181C255.81 149.521 257.861 148.284 259.383 146.508C260.905 144.735 261.813 142.095 260.671 140.056C259.771 138.449 257.71 137.347 257.756 135.506C257.827 132.662 262.743 131.938 262.862 129.096C262.971 126.477 259.5 125.71 257.726 124.704C253.053 122.054 255.785 116.18 260.123 114.989C262.587 114.312 265.281 114.971 267.723 114.221C270.452 113.381 272.231 111.062 274.571 109.582C277.106 107.982 280.439 107.387 283.408 107.507Z" fill="#002770"/>
<path d="M291.162 164.028C287.453 161.865 283.835 159.656 280.253 157.119L276.121 154.191C275.083 153.457 269.694 156.141 268.283 156.456C262.506 157.744 253.918 209.364 255.862 211.735C255.69 220.79 254.178 267.509 254.178 267.509L291.392 266.737L299.447 181.25C300.246 172.801 296.33 167.042 291.162 164.028Z" fill="#85BFFF"/>
<path d="M263.001 167.426C265.536 169.249 268.343 170.765 271.384 171.467C274.426 172.17 277.73 172.012 280.534 170.638C284.279 168.803 286.836 164.762 286.889 160.592C286.893 160.273 286.877 159.955 286.853 159.638C284.633 158.607 282.436 157.538 280.255 156.37L276.123 154.162C275.085 153.608 269.696 155.632 268.285 155.872C266.359 156.196 264.121 160.744 262.067 166.729C262.383 166.973 262.696 167.208 263.001 167.426Z" fill="#FCD4CB"/>
<path d="M211.909 155.13C211.602 155.302 209.592 153.331 209.34 153.077C208.111 151.84 207.333 150.207 206.882 148.537C206.251 146.194 205.988 143.548 206.233 141.131C206.356 139.912 206.607 138.703 206.997 137.541C207.199 136.939 207.438 136.349 207.715 135.777C207.717 135.774 207.719 135.768 207.723 135.762C208.602 134.17 212.681 138.055 213.415 139.16C215.606 142.459 218.971 146.833 218.139 151.14C215.309 152.879 214.737 153.392 211.909 155.13Z" fill="#FCD4CB"/>
<path d="M228.609 193.529L229.363 194.471C231.702 197.388 234.19 197.218 237.107 194.879L265.098 174.501C268.016 172.162 268.485 167.901 266.145 164.984L265.391 164.042C263.052 161.124 260.465 160.738 257.548 163.078L232.077 183.669C229.159 186.008 226.272 190.612 228.609 193.529Z" fill="white"/>
<path d="M218.809 150.445L209.544 155.498L228.597 193.582L240.193 189.515L218.809 150.445Z" fill="white"/>
<path d="M273.751 161.734C270.973 161.229 269.128 158.567 269.633 155.789L271.729 144.246L281.791 146.073L279.695 157.615C279.192 160.394 276.53 162.239 273.751 161.734Z" fill="#FCD4CB"/>
<path d="M282.293 143.306L272.231 141.479L269.89 154.374C274.513 154.451 279.471 151.894 281.151 147.686C281.533 146.732 281.812 145.741 282.036 144.729L282.293 143.306Z" fill="#FFBCAD"/>
<path d="M268.251 150.896C267.483 150.544 266.783 150.055 266.195 149.396C264.307 147.276 263.846 144.124 264.018 141.386C264.109 139.942 267.774 120.267 267.753 120.263L287.728 123.889C287.073 127.497 286.418 131.103 285.765 134.711C285.141 138.145 285.003 141.846 283.698 145.109C281.486 150.649 273.583 153.334 268.251 150.896Z" fill="#FCD4CB"/>
<path d="M269.894 140.084L269.094 139.827L269.282 139.237L267.109 138.966L270.804 133.618L271.497 134.097L268.59 138.303L270.395 138.527L269.894 140.084Z" fill="#FFBCAD"/>
<path d="M266.268 139.843C266.389 141.555 267.685 143.043 269.498 143.371C271.311 143.7 273.049 142.762 273.763 141.204L266.268 139.843Z" fill="white"/>
<path d="M284.904 144.937C284.475 145.216 283.916 145.309 283.158 145.103C280.326 144.331 280.494 140.797 280.863 138.489C281.294 135.791 282.365 132.86 281.555 130.135C278.773 120.764 270.332 128.847 265.075 124.696C263.407 123.378 262.658 120.799 263.83 119.024C265.651 116.271 269.902 117.098 272.604 117.575C276.661 118.29 278.678 118.143 282.727 116.972C285.128 116.277 287.809 115.851 290.05 116.962C292.49 118.171 290.851 127.79 291.59 129.723C292.063 130.96 293.387 131.687 293.961 132.88C295.336 135.736 293.06 136.104 290.962 136.902C289.007 137.646 287.778 139.152 286.879 140.981C286.272 142.218 286.026 144.209 284.904 144.937Z" fill="#002770"/>
<path d="M301.59 174.418C301.449 168.198 297.976 163.078 297.976 163.078C297.976 163.078 296.943 161.712 294.608 160.55C290.509 158.514 283.928 156.093 282.818 155.498C281.478 153.04 273.553 201.819 273.553 201.819C273.553 202.661 280.29 259.09 281.134 264.143C288.379 263.777 301.653 255.243 302.928 253.938C304.246 252.588 304.28 250.495 304.313 248.608C304.713 226.242 302.186 200.976 301.59 174.418Z" fill="white"/>
<path d="M280.674 153.813C274.919 168.451 274.432 187.245 273.552 201.819C276.797 197.165 284.197 184.674 284.197 184.674C284.197 184.674 279.794 180.387 279.275 179.899C281.021 176.368 289.553 158.025 289.553 158.025C289.553 158.025 282.436 154.67 280.674 153.813Z" fill="#CCE4FF"/>
<path d="M263.444 259.088C263.832 247.939 269.445 213.229 269.441 201.818C268.558 194.055 268.097 182.63 267.211 174.868C266.451 168.216 264.521 164.386 263.805 157.728C264.08 157.38 261.131 159.298 258.95 160.74C257.471 161.718 256.266 163.056 255.466 164.639C252.023 171.465 248.866 179.156 250.233 186.837C250.469 188.156 250.916 189.462 251.649 190.59C252.335 191.647 253.691 192.26 254.178 193.396C256.705 199.292 252.282 255.894 254.39 256.054C255.484 256.137 263.446 259.054 263.444 259.088Z" fill="white"/>
<path d="M269.437 154.655C270.183 171.499 270.713 187.554 269.447 201.818C267.727 196.895 262.322 182.925 262.322 182.925C262.322 182.925 266.037 179.305 266.472 178.893C265.681 175.248 263.446 157.182 263.446 157.182C263.545 157.028 269.437 154.655 269.437 154.655Z" fill="#CCE4FF"/>
<path d="M286.885 237.614C283.416 239.447 280.775 242.277 279.55 245.473C278.327 248.67 278.531 252.208 280.114 255.3C284.251 255.114 285.806 254.714 288.14 251.953C290.475 249.192 292.919 239.526 292.919 239.526C292.118 237.551 289.414 238.004 286.885 237.614Z" fill="#FCD4CB"/>
<path d="M311.246 206.269C311.246 206.269 313.128 206.033 313.134 206.031C319.804 203.248 301.343 163.08 296.452 161.758C293.778 161.035 291.015 163.519 289.776 165.997C286.958 171.626 298.999 193.226 301.443 198.75C303.017 202.306 306.474 208.26 311.246 206.269Z" fill="white"/>
<path d="M284.5 238.034L292.921 242.243L313.977 205.188L304.759 195.134L284.5 238.034Z" fill="white"/>
<path d="M42.3018 426.573L332.903 426.573V254.801L42.3018 254.801V426.573Z" fill="#85BFFF"/>
<path d="M332.903 426.572H379.308V246.983H332.903V426.572Z" fill="#69B0FF"/>
<path d="M42.2433 254.802L379.309 254.802V244.081L42.2433 244.081V254.802Z" fill="#69B0FF"/>
<path d="M332.903 254.802H379.308V244.081H332.903V254.802Z" fill="#69B0FF"/>
<path d="M234.376 181.607H149.598V233.86H184.371V235.396V241.737H178.121V243.862H205.853V241.737H199.601V235.396V233.86H234.376V181.607Z" fill="#003BA8"/>
<path d="M234.376 181.607H228.176V233.862H234.376V181.607Z" fill="#002770"/>
<path d="M199.601 233.872H195.29V243.863H205.853V241.737H199.601V235.396V233.872Z" fill="#002770"/>
<path d="M209.995 243.88H257.741V237.751H209.995V243.88Z" fill="#003BA8"/>
<path d="M248.05 244.023H269.856V237.751H248.05V244.023Z" fill="#002770"/>
<path d="M138.526 174.163L143.179 181.029L104.847 211.163L95.2999 201.063L138.526 174.163Z" fill="#FFBCAD"/>
<path d="M142.401 181.601C142.621 181.931 145.663 180.993 146.047 180.868C147.925 180.263 149.552 179.024 150.87 177.579C152.719 175.552 154.355 173.027 155.363 170.472C155.871 169.181 156.246 167.838 156.455 166.468C156.564 165.758 156.629 165.041 156.647 164.325C156.647 164.319 156.647 164.311 156.647 164.305C156.665 163.4 155.723 162.787 154.874 163.1C154.458 163.252 154.102 163.375 153.997 163.42C152.622 164.028 151.258 164.592 149.948 165.32C146.033 167.501 136.294 174.931 134.896 179.691C136.844 182.903 140.46 178.386 142.401 181.601Z" fill="#FFBCAD"/>
<path d="M87.8087 153.39C91.0011 153.269 93.4909 150.586 93.3701 147.393L92.8714 134.135L81.3132 134.57L81.8119 147.829C81.9327 151.021 84.6184 153.511 87.8087 153.39Z" fill="#FCD4CB"/>
<path d="M95.7016 142.137C96.6179 141.865 97.4808 141.43 98.2428 140.785C100.695 138.715 101.718 135.259 101.962 132.166C102.09 130.535 101.136 107.919 101.16 107.917L78.2139 108.78C78.3702 112.924 78.5266 117.067 78.6809 121.211C78.8294 125.156 78.392 129.322 79.3301 133.185C80.9233 139.744 89.3426 144.013 95.7016 142.137Z" fill="#FCD4CB"/>
<path d="M110.389 108.45C109.947 107.454 109.106 106.573 107.784 105.968C104.806 104.604 101.669 105.518 98.5654 105.659C95.189 105.811 92.246 104.851 89.214 103.434C86.7104 102.265 84.1613 101.008 81.4043 100.808C78.7206 100.612 75.9775 101.914 74.3823 104.07C73.0187 105.91 72.4962 108.349 72.987 110.587C73.2483 111.78 73.7787 112.907 74.0182 114.11C74.3724 115.901 73.5709 117.112 72.2745 118.318C71.4195 119.113 70.4774 119.853 69.8837 120.861C67.2752 125.294 75.6213 125.684 76.6049 129.324C77.1472 131.33 76.6227 133.458 77.2481 135.459C78.2317 138.604 80.7294 137.317 83.053 136.553C84.4522 136.094 86.1444 135.35 87.2646 136.763C88.6559 138.515 89.5505 139.944 92.151 139.538C93.582 139.314 94.8744 138.58 96.1014 137.81C96.6397 137.474 97.1998 137.094 97.4492 136.51C98.328 134.448 96.8693 131.724 98.4368 129.927C100.032 128.097 103.891 129.905 104.077 126.485C104.252 123.285 102.571 120.999 103.612 117.629C103.737 117.227 103.899 116.811 104.23 116.552C104.598 116.263 105.099 116.23 105.56 116.154C109.374 115.543 111.727 111.47 110.389 108.45Z" fill="#002770"/>
<path d="M70.677 397.764L68.8361 412.982L82.6788 414.656L84.5197 399.438L70.677 397.764Z" fill="#FFBCAD"/>
<path d="M92.2679 418.265V425.845L67.7345 421.859L68.8072 412.996L82.6493 414.67L92.2679 418.265Z" fill="#002770"/>
<path d="M60.0354 231.063L118.111 229.999C118.111 229.999 116.847 160.915 116.843 160.796C116.633 149.313 103.569 147.276 94.6962 147.363C83.9593 147.468 58.4679 145.444 58.7688 161.859L60.0354 231.063Z" fill="#85BFFF"/>
<path d="M120.433 204.745L119.115 205.101C115.032 206.205 112.928 203.062 111.823 198.979L99.8002 163.024C98.6958 158.941 101.11 154.738 105.193 153.633L106.511 153.277C110.594 152.173 114.798 154.587 115.903 158.67L123.643 195.783C124.747 199.864 124.516 203.64 120.433 204.745Z" fill="#FCD4CB"/>
<path d="M165.401 215.64L161.817 223.117L116.471 205.196L120.381 191.86L165.401 215.64Z" fill="#FCD4CB"/>
<path d="M160.93 222.735C160.756 223.093 163.097 225.247 163.4 225.516C164.871 226.832 166.759 227.614 168.672 228.025C171.356 228.599 174.361 228.742 177.076 228.324C178.447 228.112 179.795 227.76 181.086 227.252C181.753 226.988 182.406 226.683 183.035 226.337C183.041 226.333 183.047 226.331 183.053 226.327C183.843 225.886 183.898 224.764 183.199 224.188C182.859 223.905 182.572 223.659 182.481 223.592C181.264 222.709 180.088 221.815 178.798 221.053C174.942 218.771 163.616 214.104 158.801 215.295C157.003 218.591 162.727 219.438 160.93 222.735Z" fill="#FCD4CB"/>
<path d="M122.586 176.552C123.336 179.77 124.27 184.973 124.27 184.973C122.574 185.731 118.507 186.938 116.785 187.637C115.962 187.971 106.832 191.417 106.818 191.37C103.895 181.638 101.164 171.822 99.5213 161.793C99.0265 158.765 98.692 155.42 100.364 152.848C102.163 150.079 105.961 149.065 109.156 149.903C113.274 150.987 116.69 151.286 122.586 176.552Z" fill="#69B0FF"/>
<path d="M90.6231 328.879L92.9367 328.475C100.105 327.222 104.901 320.398 103.648 313.229L92.3984 248.822C91.1456 241.654 84.3215 236.858 77.1531 238.111L74.8394 238.515C67.671 239.768 60.7975 236.698 62.0503 243.866L77.9606 319.133C79.2134 326.3 83.4566 330.129 90.6231 328.879Z" fill="#002770"/>
<path d="M66.6102 402.823L87.5239 405.353L103.783 316.634L77.9626 319.133L66.6102 402.823Z" fill="#002770"/>
<path d="M168.867 197.598L143.811 187.805L153.204 147.627L178.325 157.132L168.867 197.598Z" fill="white"/>
<path d="M171.629 169.065L153.7 162.209L154.152 160.281L172.083 167.127L171.629 169.065Z" fill="#85BFFF"/>
<path d="M170.141 175.433L152.22 168.544L152.671 166.616L170.594 173.496L170.141 175.433Z" fill="#85BFFF"/>
<path d="M168.653 181.802L150.738 174.881L151.189 172.952L169.106 179.865L168.653 181.802Z" fill="#85BFFF"/>
<path d="M167.163 188.169L149.257 181.217L149.708 179.289L167.616 186.232L167.163 188.169Z" fill="#85BFFF"/>
<path d="M96.4774 417.421L109.953 418.265L109.85 400.124L95.9114 400.522L96.4774 417.421Z" fill="#FCD4CB"/>
<path d="M119.218 421.045V426.573H96.4596V417.645H110.403L119.218 421.045Z" fill="#003BA8"/>
<path d="M92.4497 405.764L113.516 405.845L117.664 315.226L90.6467 316.01L92.4497 405.764Z" fill="#003BA8"/>
<path d="M102.092 328.34L104.44 328.348C111.715 328.376 117.637 322.5 117.664 315.224L118.112 235.511C118.112 235.511 112.067 236.645 104.79 236.617L102.441 236.609C95.1654 236.581 89.2438 242.457 89.2161 249.733L90.5817 316.357C90.554 323.634 94.8151 328.313 102.092 328.34Z" fill="#003BA8"/>
<path d="M78.8532 255.672C78.8532 255.672 107.389 255.714 107.426 255.722C111.863 256.63 120.025 245.26 118.111 230.001L60.0355 231.065L62.0503 243.868C63.4298 251.765 70.9525 257.052 78.8532 255.672Z" fill="#003BA8"/>
<path d="M153.144 171.863C153.997 172.419 154.53 173.567 154.11 174.496C153.781 175.222 152.996 175.614 152.254 175.905C151.252 176.297 150.219 176.607 149.168 176.831C148.477 176.977 143.448 178.509 142.799 178.236C140.891 177.435 145.457 172.689 147.001 171.646C147.644 171.212 152.026 171.135 153.144 171.863Z" fill="#FFBCAD"/>
<path d="M191.015 388.787C219.853 388.787 243.231 365.409 243.231 336.571C243.231 307.734 219.853 284.356 191.015 284.356C162.177 284.356 138.8 307.734 138.8 336.571C138.8 365.409 162.177 388.787 191.015 388.787Z" fill="#E31834"/>
<path d="M226.177 323.842H203.533V301.198H177.654V323.842H155.011V349.721H177.654V372.364H203.533V349.721H226.177V323.842Z" fill="white"/>
<path d="M315.264 439H30.1703C29.4875 439 28.9333 438.446 28.9333 437.763C28.9333 437.08 29.4875 436.526 30.1703 436.526H315.264C315.947 436.526 316.501 437.08 316.501 437.763C316.501 438.446 315.947 439 315.264 439Z" fill="#69B0FF"/>
<path d="M382.036 439H333.658C332.975 439 332.421 438.446 332.421 437.763C332.421 437.08 332.975 436.526 333.658 436.526H382.036C382.719 436.526 383.273 437.08 383.273 437.763C383.273 438.446 382.719 439 382.036 439Z" fill="#69B0FF"/>
<path d="M409.002 427.877H3.20449C2.52169 427.877 1.96753 427.323 1.96753 426.64C1.96753 425.957 2.52169 425.403 3.20449 425.403H409.002C409.685 425.403 410.239 425.957 410.239 426.64C410.239 427.321 409.685 427.877 409.002 427.877Z" fill="#69B0FF"/>
<path d="M327.541 229.13H297.133V244.023H327.541V229.13Z" fill="white"/>
<path d="M332.504 229.13H327.541V244.023H332.504V229.13Z" fill="#CCE4FF"/>
<path d="M327.541 233.472H297.133V237.816H327.541V233.472Z" fill="#003BA8"/>
<path d="M327.542 237.818H332.505V233.473H327.542V237.818Z" fill="#002770"/>
</svg>
